<svg xmlns="http://www.w3.org/2000/svg" xmlns:xlink="http://www.w3.org/1999/xlink" width="500" zoomAndPan="magnify" viewBox="0 0 375 374.999991" height="500" preserveAspectRatio="xMidYMid meet" version="1.0"><defs><clipPath id="2400a87ed5"><path d="M 7 55.566406 L 309 55.566406 L 309 238 L 7 238 Z M 7 55.566406 " clip-rule="nonzero"/></clipPath><clipPath id="3c89b2c3be"><path d="M 61 180 L 368 180 L 368 319.566406 L 61 319.566406 Z M 61 180 " clip-rule="nonzero"/></clipPath></defs><g clip-path="url(#2400a87ed5)"><path fill="#404040" d="M 93.699219 216.164062 L 130.542969 237.441406 C 145.847656 240.421875 161.96875 229.582031 173.210938 220.09375 C 199.082031 193.53125 230.234375 171.578125 266.941406 164.664062 L 146.253906 94.871094 C 157.632812 89.992188 170.230469 87.417969 183.367188 87.417969 C 229.558594 87.417969 268.160156 120.214844 277.101562 163.714844 C 287.667969 162.226562 297.824219 161.953125 308.527344 163.308594 C 299.042969 102.730469 246.625 56.246094 183.367188 56.246094 C 158.039062 56.246094 134.472656 63.699219 114.558594 76.574219 L 81.914062 57.738281 C 73.652344 52.992188 63.085938 55.839844 58.347656 64.105469 L 9.992188 147.859375 C 5.25 156.125 8.09375 166.699219 16.355469 171.441406 L 31.933594 180.519531 L 31.796875 180.25 L 93.429688 216.300781 L 93.429688 216.164062 Z M 101.554688 133.496094 C 106.296875 143.660156 140.296875 137.832031 140.296875 161.820312 C 140.296875 174.558594 131.085938 181.605469 118.894531 182.824219 L 118.894531 195.699219 L 107.246094 195.699219 L 107.246094 182.28125 C 99.253906 180.792969 92.210938 177.402344 85.84375 171.710938 L 93.292969 162.902344 C 96.679688 165.882812 100.203125 168.054688 103.722656 169.679688 C 111.984375 173.339844 128.105469 173.746094 128.105469 163.039062 C 128.105469 147.046875 88.6875 158.296875 88.6875 131.054688 C 88.6875 119.941406 96.679688 112.625 107.378906 110.863281 L 107.378906 97.714844 L 119.03125 97.714844 L 119.03125 110.863281 C 126.207031 111.808594 132.4375 114.792969 138.128906 119.265625 L 131.492188 128.617188 C 128.238281 126.3125 125.125 124.414062 121.875 123.195312 C 113.070312 119.671875 100.878906 120.890625 100.878906 129.835938 C 100.878906 131.191406 101.148438 132.410156 101.554688 133.496094 Z M 101.554688 133.496094 " fill-opacity="1" fill-rule="evenodd"/></g><g clip-path="url(#3c89b2c3be)"><path fill="#d2042d" d="M 279.132812 181.0625 C 246.894531 184.585938 215.742188 202.070312 185.535156 233.375 C 159.800781 255.058594 136.910156 261.15625 116.726562 251.804688 C 112.257812 249.773438 108.058594 246.925781 103.859375 243.269531 L 61.867188 218.601562 C 64.308594 227.140625 67.691406 235.40625 71.890625 242.996094 C 94.105469 280.265625 138.804688 300.59375 182.828125 290.023438 C 225.085938 278.367188 259.355469 258.3125 285.90625 229.988281 C 262.742188 272.542969 216.148438 297.207031 146.121094 304.253906 C 146.527344 304.253906 184.859375 329.867188 235.515625 314.960938 C 265.585938 306.152344 290.644531 285.417969 304.867188 257.5 C 319.226562 233.375 341.167969 214.671875 367.175781 204.238281 C 339.273438 186.890625 309.746094 177.539062 279.132812 180.925781 Z M 279.132812 181.0625 " fill-opacity="1" fill-rule="evenodd"/></g></svg>