<svg xmlns="http://www.w3.org/2000/svg" xmlns:xlink="http://www.w3.org/1999/xlink" width="500" zoomAndPan="magnify" viewBox="0 0 375 374.999991" height="500" preserveAspectRatio="xMidYMid meet" version="1.0"><defs><g/><clipPath id="4e647c8969"><path d="M 18 75.929688 L 200 75.929688 L 200 186 L 18 186 Z M 18 75.929688 " clip-rule="nonzero"/></clipPath><clipPath id="d869bb6888"><path d="M 51 150 L 235 150 L 235 234.179688 L 51 234.179688 Z M 51 150 " clip-rule="nonzero"/></clipPath></defs><rect x="-37.5" width="450" fill="#ffffff" y="-37.499999" height="449.999989" fill-opacity="1"/><rect x="-37.5" width="450" fill="#ffffff" y="-37.499999" height="449.999989" fill-opacity="1"/><g clip-path="url(#4e647c8969)"><path fill="#999999" d="M 70.210938 172.269531 L 92.324219 185.03125 C 101.507812 186.820312 111.183594 180.316406 117.929688 174.625 C 133.460938 158.691406 152.15625 145.519531 174.1875 141.375 L 101.753906 99.507812 C 108.582031 96.578125 116.144531 95.035156 124.027344 95.035156 C 151.75 95.035156 174.921875 114.710938 180.285156 140.804688 C 186.628906 139.910156 192.726562 139.75 199.148438 140.5625 C 193.457031 104.222656 161.996094 76.335938 124.027344 76.335938 C 108.828125 76.335938 94.679688 80.808594 82.730469 88.53125 L 63.136719 77.230469 C 58.179688 74.386719 51.835938 76.09375 48.992188 81.050781 L 19.96875 131.292969 C 17.121094 136.253906 18.828125 142.59375 23.789062 145.441406 L 33.136719 150.886719 L 33.058594 150.722656 L 70.046875 172.347656 L 70.046875 172.269531 Z M 74.925781 122.675781 C 77.769531 128.773438 98.175781 125.277344 98.175781 139.667969 C 98.175781 147.308594 92.648438 151.535156 85.332031 152.269531 L 85.332031 159.992188 L 78.339844 159.992188 L 78.339844 151.941406 C 73.542969 151.050781 69.316406 149.015625 65.496094 145.601562 L 69.964844 140.316406 C 72 142.105469 74.113281 143.40625 76.226562 144.382812 C 81.183594 146.578125 90.859375 146.820312 90.859375 140.398438 C 90.859375 130.804688 67.203125 137.554688 67.203125 121.214844 C 67.203125 114.546875 72 110.15625 78.421875 109.101562 L 78.421875 101.214844 L 85.414062 101.214844 L 85.414062 109.101562 C 89.722656 109.667969 93.460938 111.457031 96.875 114.140625 L 92.890625 119.75 C 90.941406 118.367188 89.070312 117.230469 87.121094 116.496094 C 81.835938 114.382812 74.519531 115.117188 74.519531 120.480469 C 74.519531 121.292969 74.679688 122.027344 74.925781 122.675781 Z M 74.925781 122.675781 " fill-opacity="1" fill-rule="evenodd"/></g><g clip-path="url(#d869bb6888)"><path fill="#d2042d" d="M 181.507812 151.210938 C 162.15625 153.324219 143.457031 163.8125 125.328125 182.59375 C 109.882812 195.601562 96.144531 199.257812 84.03125 193.648438 C 81.347656 192.429688 78.828125 190.722656 76.308594 188.527344 L 51.105469 173.730469 C 52.570312 178.851562 54.601562 183.8125 57.121094 188.363281 C 70.453125 210.722656 97.28125 222.914062 123.703125 216.574219 C 149.070312 209.582031 169.636719 197.550781 185.570312 180.558594 C 171.667969 206.085938 143.703125 220.882812 101.671875 225.109375 C 101.914062 225.109375 124.921875 240.476562 155.328125 231.535156 C 173.375 226.25 188.417969 213.8125 196.953125 197.0625 C 205.570312 182.59375 218.738281 171.375 234.347656 165.113281 C 217.601562 154.707031 199.878906 149.097656 181.507812 151.128906 Z M 181.507812 151.210938 " fill-opacity="1" fill-rule="evenodd"/></g><g fill="#d2042d" fill-opacity="1"><g transform="translate(200.586472, 225.931412)"><g><path d="M 14.421875 -28.140625 L 14.421875 -23.53125 L 26.078125 -23.53125 L 26.078125 -14.6875 L 14.421875 -14.6875 L 14.421875 -9.375 L 27.671875 -9.375 L 27.671875 0 L 2.65625 0 L 2.65625 -37.53125 L 27.671875 -37.53125 L 27.671875 -28.140625 Z M 14.421875 -28.140625 "/></g></g></g><g fill="#d2042d" fill-opacity="1"><g transform="translate(234.192114, 225.931412)"><g><path d="M 26.71875 -5.671875 L 14.203125 -5.671875 L 12.34375 0 L 0 0 L 13.734375 -37.53125 L 27.296875 -37.53125 L 40.96875 0 L 28.5625 0 Z M 23.84375 -14.515625 L 20.453125 -24.96875 L 17.0625 -14.515625 Z M 23.84375 -14.515625 "/></g></g></g><g fill="#d2042d" fill-opacity="1"><g transform="translate(279.299769, 225.931412)"><g><path d="M 17.328125 0.375 C 12.835938 0.375 9.132812 -0.675781 6.21875 -2.78125 C 3.3125 -4.882812 1.734375 -7.96875 1.484375 -12.03125 L 13.984375 -12.03125 C 14.160156 -9.875 15.117188 -8.796875 16.859375 -8.796875 C 17.492188 -8.796875 18.03125 -8.945312 18.46875 -9.25 C 18.914062 -9.550781 19.140625 -10.019531 19.140625 -10.65625 C 19.140625 -11.539062 18.660156 -12.253906 17.703125 -12.796875 C 16.742188 -13.347656 15.257812 -13.976562 13.25 -14.6875 C 10.84375 -15.53125 8.851562 -16.359375 7.28125 -17.171875 C 5.707031 -17.984375 4.351562 -19.164062 3.21875 -20.71875 C 2.09375 -22.28125 1.550781 -24.28125 1.59375 -26.71875 C 1.59375 -29.15625 2.21875 -31.226562 3.46875 -32.9375 C 4.726562 -34.65625 6.441406 -35.953125 8.609375 -36.828125 C 10.785156 -37.710938 13.234375 -38.15625 15.953125 -38.15625 C 20.546875 -38.15625 24.191406 -37.09375 26.890625 -34.96875 C 29.597656 -32.851562 31.019531 -29.867188 31.15625 -26.015625 L 18.5 -26.015625 C 18.457031 -27.078125 18.1875 -27.835938 17.6875 -28.296875 C 17.195312 -28.753906 16.601562 -28.984375 15.90625 -28.984375 C 15.40625 -28.984375 14.992188 -28.816406 14.671875 -28.484375 C 14.359375 -28.148438 14.203125 -27.679688 14.203125 -27.078125 C 14.203125 -26.234375 14.671875 -25.535156 15.609375 -24.984375 C 16.546875 -24.441406 18.039062 -23.78125 20.09375 -23 C 22.457031 -22.113281 24.40625 -21.265625 25.9375 -20.453125 C 27.476562 -19.640625 28.8125 -18.507812 29.9375 -17.0625 C 31.070312 -15.613281 31.640625 -13.796875 31.640625 -11.609375 C 31.640625 -9.304688 31.070312 -7.242188 29.9375 -5.421875 C 28.8125 -3.609375 27.171875 -2.1875 25.015625 -1.15625 C 22.859375 -0.132812 20.296875 0.375 17.328125 0.375 Z M 17.328125 0.375 "/></g></g></g><g fill="#d2042d" fill-opacity="1"><g transform="translate(316.562732, 225.931412)"><g><path d="M 14.421875 -28.140625 L 14.421875 -23.53125 L 26.078125 -23.53125 L 26.078125 -14.6875 L 14.421875 -14.6875 L 14.421875 -9.375 L 27.671875 -9.375 L 27.671875 0 L 2.65625 0 L 2.65625 -37.53125 L 27.671875 -37.53125 L 27.671875 -28.140625 Z M 14.421875 -28.140625 "/></g></g></g><g fill="#999999" fill-opacity="1"><g transform="translate(121.720274, 257.011511)"><g><path d="M 20.234375 -14.515625 C 22.046875 -14.515625 23.46875 -13.96875 24.5 -12.875 C 25.53125 -11.78125 26.046875 -10.285156 26.046875 -8.390625 L 26.046875 0 L 21.03125 0 L 21.03125 -7.71875 C 21.03125 -8.488281 20.816406 -9.085938 20.390625 -9.515625 C 19.960938 -9.941406 19.378906 -10.15625 18.640625 -10.15625 C 17.898438 -10.15625 17.316406 -9.941406 16.890625 -9.515625 C 16.460938 -9.085938 16.25 -8.488281 16.25 -7.71875 L 16.25 0 L 11.234375 0 L 11.234375 -7.71875 C 11.234375 -8.488281 11.019531 -9.085938 10.59375 -9.515625 C 10.175781 -9.941406 9.601562 -10.15625 8.875 -10.15625 C 8.125 -10.15625 7.535156 -9.941406 7.109375 -9.515625 C 6.679688 -9.085938 6.46875 -8.488281 6.46875 -7.71875 L 6.46875 0 L 1.4375 0 L 1.4375 -14.390625 L 6.46875 -14.390625 L 6.46875 -12.484375 C 6.90625 -13.097656 7.476562 -13.585938 8.1875 -13.953125 C 8.894531 -14.328125 9.710938 -14.515625 10.640625 -14.515625 C 11.703125 -14.515625 12.644531 -14.28125 13.46875 -13.8125 C 14.300781 -13.351562 14.957031 -12.707031 15.4375 -11.875 C 15.945312 -12.65625 16.617188 -13.289062 17.453125 -13.78125 C 18.296875 -14.269531 19.222656 -14.515625 20.234375 -14.515625 Z M 20.234375 -14.515625 "/></g></g></g><g fill="#999999" fill-opacity="1"><g transform="translate(156.83454, 257.011511)"><g><path d="M 16.921875 -14.390625 L 7.796875 6.84375 L 2.328125 6.84375 L 5.765625 -0.609375 L -0.125 -14.390625 L 5.46875 -14.390625 L 8.484375 -6.234375 L 11.40625 -14.390625 Z M 16.921875 -14.390625 "/></g></g></g><g fill="#999999" fill-opacity="1"><g transform="translate(181.391413, 257.011511)"><g/></g></g><g fill="#999999" fill-opacity="1"><g transform="translate(194.058416, 257.011511)"><g><path d="M 6.46875 -12.390625 C 6.851562 -13.054688 7.40625 -13.582031 8.125 -13.96875 C 8.84375 -14.363281 9.691406 -14.5625 10.671875 -14.5625 C 11.816406 -14.5625 12.851562 -14.257812 13.78125 -13.65625 C 14.707031 -13.0625 15.441406 -12.207031 15.984375 -11.09375 C 16.523438 -9.988281 16.796875 -8.691406 16.796875 -7.203125 C 16.796875 -5.710938 16.523438 -4.40625 15.984375 -3.28125 C 15.441406 -2.164062 14.707031 -1.3125 13.78125 -0.71875 C 12.851562 -0.125 11.816406 0.171875 10.671875 0.171875 C 9.691406 0.171875 8.847656 -0.0195312 8.140625 -0.40625 C 7.429688 -0.800781 6.875 -1.332031 6.46875 -2 L 6.46875 6.875 L 1.4375 6.875 L 1.4375 -14.390625 L 6.46875 -14.390625 Z M 11.6875 -7.203125 C 11.6875 -8.140625 11.429688 -8.867188 10.921875 -9.390625 C 10.421875 -9.910156 9.804688 -10.171875 9.078125 -10.171875 C 8.335938 -10.171875 7.71875 -9.90625 7.21875 -9.375 C 6.71875 -8.851562 6.46875 -8.128906 6.46875 -7.203125 C 6.46875 -6.265625 6.71875 -5.53125 7.21875 -5 C 7.71875 -4.46875 8.335938 -4.203125 9.078125 -4.203125 C 9.804688 -4.203125 10.421875 -4.472656 10.921875 -5.015625 C 11.429688 -5.554688 11.6875 -6.285156 11.6875 -7.203125 Z M 11.6875 -7.203125 "/></g></g></g><g fill="#999999" fill-opacity="1"><g transform="translate(219.255914, 257.011511)"><g><path d="M 6.46875 -11.84375 C 7.03125 -12.664062 7.710938 -13.316406 8.515625 -13.796875 C 9.316406 -14.273438 10.179688 -14.515625 11.109375 -14.515625 L 11.109375 -9.15625 L 9.6875 -9.15625 C 8.59375 -9.15625 7.78125 -8.941406 7.25 -8.515625 C 6.726562 -8.085938 6.46875 -7.34375 6.46875 -6.28125 L 6.46875 0 L 1.4375 0 L 1.4375 -14.390625 L 6.46875 -14.390625 Z M 6.46875 -11.84375 "/></g></g></g><g fill="#999999" fill-opacity="1"><g transform="translate(238.482855, 257.011511)"><g><path d="M 8.125 0.171875 C 6.6875 0.171875 5.398438 -0.125 4.265625 -0.71875 C 3.128906 -1.3125 2.234375 -2.164062 1.578125 -3.28125 C 0.929688 -4.394531 0.609375 -5.703125 0.609375 -7.203125 C 0.609375 -8.691406 0.9375 -9.988281 1.59375 -11.09375 C 2.257812 -12.207031 3.160156 -13.0625 4.296875 -13.65625 C 5.429688 -14.257812 6.71875 -14.5625 8.15625 -14.5625 C 9.59375 -14.5625 10.878906 -14.257812 12.015625 -13.65625 C 13.148438 -13.0625 14.046875 -12.207031 14.703125 -11.09375 C 15.359375 -9.988281 15.6875 -8.691406 15.6875 -7.203125 C 15.6875 -5.710938 15.359375 -4.40625 14.703125 -3.28125 C 14.046875 -2.164062 13.144531 -1.3125 12 -0.71875 C 10.851562 -0.125 9.5625 0.171875 8.125 0.171875 Z M 8.125 -4.171875 C 8.820312 -4.171875 9.40625 -4.429688 9.875 -4.953125 C 10.351562 -5.484375 10.59375 -6.234375 10.59375 -7.203125 C 10.59375 -8.179688 10.351562 -8.925781 9.875 -9.4375 C 9.40625 -9.945312 8.832031 -10.203125 8.15625 -10.203125 C 7.46875 -10.203125 6.894531 -9.945312 6.4375 -9.4375 C 5.976562 -8.925781 5.75 -8.179688 5.75 -7.203125 C 5.75 -6.210938 5.96875 -5.457031 6.40625 -4.9375 C 6.851562 -4.425781 7.425781 -4.171875 8.125 -4.171875 Z M 8.125 -4.171875 "/></g></g></g><g fill="#999999" fill-opacity="1"><g transform="translate(262.552873, 257.011511)"><g><path d="M 0.609375 -7.203125 C 0.609375 -8.691406 0.914062 -9.988281 1.53125 -11.09375 C 2.15625 -12.207031 3.015625 -13.0625 4.109375 -13.65625 C 5.210938 -14.257812 6.472656 -14.5625 7.890625 -14.5625 C 9.722656 -14.5625 11.265625 -14.0625 12.515625 -13.0625 C 13.765625 -12.0625 14.566406 -10.664062 14.921875 -8.875 L 9.59375 -8.875 C 9.28125 -9.8125 8.679688 -10.28125 7.796875 -10.28125 C 7.160156 -10.28125 6.660156 -10.019531 6.296875 -9.5 C 5.929688 -8.976562 5.75 -8.210938 5.75 -7.203125 C 5.75 -6.191406 5.929688 -5.421875 6.296875 -4.890625 C 6.660156 -4.367188 7.160156 -4.109375 7.796875 -4.109375 C 8.703125 -4.109375 9.300781 -4.578125 9.59375 -5.515625 L 14.921875 -5.515625 C 14.566406 -3.734375 13.765625 -2.335938 12.515625 -1.328125 C 11.265625 -0.328125 9.722656 0.171875 7.890625 0.171875 C 6.472656 0.171875 5.210938 -0.125 4.109375 -0.71875 C 3.015625 -1.3125 2.15625 -2.164062 1.53125 -3.28125 C 0.914062 -4.394531 0.609375 -5.703125 0.609375 -7.203125 Z M 0.609375 -7.203125 "/></g></g></g><g fill="#999999" fill-opacity="1"><g transform="translate(285.879772, 257.011511)"><g><path d="M 15.171875 -7.359375 C 15.171875 -6.960938 15.148438 -6.566406 15.109375 -6.171875 L 5.59375 -6.171875 C 5.644531 -5.390625 5.863281 -4.804688 6.25 -4.421875 C 6.632812 -4.035156 7.125 -3.84375 7.71875 -3.84375 C 8.550781 -3.84375 9.148438 -4.21875 9.515625 -4.96875 L 14.875 -4.96875 C 14.644531 -3.976562 14.207031 -3.09375 13.5625 -2.3125 C 12.925781 -1.539062 12.117188 -0.929688 11.140625 -0.484375 C 10.171875 -0.046875 9.097656 0.171875 7.921875 0.171875 C 6.503906 0.171875 5.242188 -0.125 4.140625 -0.71875 C 3.035156 -1.3125 2.171875 -2.164062 1.546875 -3.28125 C 0.921875 -4.394531 0.609375 -5.703125 0.609375 -7.203125 C 0.609375 -8.710938 0.914062 -10.015625 1.53125 -11.109375 C 2.15625 -12.210938 3.015625 -13.0625 4.109375 -13.65625 C 5.210938 -14.257812 6.484375 -14.5625 7.921875 -14.5625 C 9.335938 -14.5625 10.59375 -14.269531 11.6875 -13.6875 C 12.78125 -13.113281 13.632812 -12.28125 14.25 -11.1875 C 14.863281 -10.101562 15.171875 -8.828125 15.171875 -7.359375 Z M 10.046875 -8.609375 C 10.046875 -9.222656 9.84375 -9.707031 9.4375 -10.0625 C 9.03125 -10.414062 8.515625 -10.59375 7.890625 -10.59375 C 7.273438 -10.59375 6.769531 -10.425781 6.375 -10.09375 C 5.988281 -9.757812 5.734375 -9.265625 5.609375 -8.609375 Z M 10.046875 -8.609375 "/></g></g></g><g fill="#999999" fill-opacity="1"><g transform="translate(309.437276, 257.011511)"><g><path d="M 7.5625 0.171875 C 6.257812 0.171875 5.097656 -0.0390625 4.078125 -0.46875 C 3.066406 -0.90625 2.265625 -1.503906 1.671875 -2.265625 C 1.085938 -3.023438 0.757812 -3.882812 0.6875 -4.84375 L 5.5625 -4.84375 C 5.632812 -4.382812 5.847656 -4.023438 6.203125 -3.765625 C 6.566406 -3.515625 7.007812 -3.390625 7.53125 -3.390625 C 7.945312 -3.390625 8.273438 -3.472656 8.515625 -3.640625 C 8.753906 -3.804688 8.875 -4.03125 8.875 -4.3125 C 8.875 -4.664062 8.675781 -4.925781 8.28125 -5.09375 C 7.882812 -5.269531 7.234375 -5.460938 6.328125 -5.671875 C 5.304688 -5.867188 4.453125 -6.097656 3.765625 -6.359375 C 3.085938 -6.617188 2.492188 -7.035156 1.984375 -7.609375 C 1.484375 -8.191406 1.234375 -8.976562 1.234375 -9.96875 C 1.234375 -10.820312 1.460938 -11.59375 1.921875 -12.28125 C 2.378906 -12.976562 3.054688 -13.53125 3.953125 -13.9375 C 4.859375 -14.351562 5.941406 -14.5625 7.203125 -14.5625 C 9.085938 -14.5625 10.566406 -14.097656 11.640625 -13.171875 C 12.710938 -12.253906 13.335938 -11.039062 13.515625 -9.53125 L 8.96875 -9.53125 C 8.882812 -10 8.679688 -10.351562 8.359375 -10.59375 C 8.046875 -10.84375 7.628906 -10.96875 7.109375 -10.96875 C 6.691406 -10.96875 6.375 -10.890625 6.15625 -10.734375 C 5.945312 -10.585938 5.84375 -10.378906 5.84375 -10.109375 C 5.84375 -9.765625 6.039062 -9.5 6.4375 -9.3125 C 6.832031 -9.132812 7.460938 -8.953125 8.328125 -8.765625 C 9.367188 -8.546875 10.234375 -8.296875 10.921875 -8.015625 C 11.617188 -7.742188 12.226562 -7.304688 12.75 -6.703125 C 13.269531 -6.097656 13.53125 -5.273438 13.53125 -4.234375 C 13.53125 -3.390625 13.285156 -2.632812 12.796875 -1.96875 C 12.316406 -1.300781 11.628906 -0.773438 10.734375 -0.390625 C 9.835938 -0.015625 8.78125 0.171875 7.5625 0.171875 Z M 7.5625 0.171875 "/></g></g></g><g fill="#999999" fill-opacity="1"><g transform="translate(331.764815, 257.011511)"><g><path d="M 7.5625 0.171875 C 6.257812 0.171875 5.097656 -0.0390625 4.078125 -0.46875 C 3.066406 -0.90625 2.265625 -1.503906 1.671875 -2.265625 C 1.085938 -3.023438 0.757812 -3.882812 0.6875 -4.84375 L 5.5625 -4.84375 C 5.632812 -4.382812 5.847656 -4.023438 6.203125 -3.765625 C 6.566406 -3.515625 7.007812 -3.390625 7.53125 -3.390625 C 7.945312 -3.390625 8.273438 -3.472656 8.515625 -3.640625 C 8.753906 -3.804688 8.875 -4.03125 8.875 -4.3125 C 8.875 -4.664062 8.675781 -4.925781 8.28125 -5.09375 C 7.882812 -5.269531 7.234375 -5.460938 6.328125 -5.671875 C 5.304688 -5.867188 4.453125 -6.097656 3.765625 -6.359375 C 3.085938 -6.617188 2.492188 -7.035156 1.984375 -7.609375 C 1.484375 -8.191406 1.234375 -8.976562 1.234375 -9.96875 C 1.234375 -10.820312 1.460938 -11.59375 1.921875 -12.28125 C 2.378906 -12.976562 3.054688 -13.53125 3.953125 -13.9375 C 4.859375 -14.351562 5.941406 -14.5625 7.203125 -14.5625 C 9.085938 -14.5625 10.566406 -14.097656 11.640625 -13.171875 C 12.710938 -12.253906 13.335938 -11.039062 13.515625 -9.53125 L 8.96875 -9.53125 C 8.882812 -10 8.679688 -10.351562 8.359375 -10.59375 C 8.046875 -10.84375 7.628906 -10.96875 7.109375 -10.96875 C 6.691406 -10.96875 6.375 -10.890625 6.15625 -10.734375 C 5.945312 -10.585938 5.84375 -10.378906 5.84375 -10.109375 C 5.84375 -9.765625 6.039062 -9.5 6.4375 -9.3125 C 6.832031 -9.132812 7.460938 -8.953125 8.328125 -8.765625 C 9.367188 -8.546875 10.234375 -8.296875 10.921875 -8.015625 C 11.617188 -7.742188 12.226562 -7.304688 12.75 -6.703125 C 13.269531 -6.097656 13.53125 -5.273438 13.53125 -4.234375 C 13.53125 -3.390625 13.285156 -2.632812 12.796875 -1.96875 C 12.316406 -1.300781 11.628906 -0.773438 10.734375 -0.390625 C 9.835938 -0.015625 8.78125 0.171875 7.5625 0.171875 Z M 7.5625 0.171875 "/></g></g></g></svg>